<svg width="31" height="12" viewBox="0 0 31 12" fill="none" xmlns="http://www.w3.org/2000/svg">
<path fill-rule="evenodd" clip-rule="evenodd" d="M31 0H2L0 12H29L31 0ZM9.54998 5.34005C9.80998 5.07338 9.97331 4.74005 10.04 4.34005C10.06 4.22672 10.07 4.12005 10.07 4.02005C10.07 3.58672 9.89998 3.23338 9.55998 2.96005C9.22665 2.68672 8.74331 2.55005 8.10998 2.55005H5.45998L4.22998 9.50005H7.00998C7.46998 9.50005 7.88665 9.42005 8.25998 9.26005C8.63998 9.09338 8.94665 8.87005 9.17998 8.59005C9.41331 8.30338 9.55998 7.98338 9.61998 7.63005C9.63998 7.53005 9.64998 7.42672 9.64998 7.32005C9.64998 6.96672 9.54998 6.66005 9.34998 6.40005C9.14998 6.14005 8.89665 5.98338 8.58998 5.93005C8.96998 5.80338 9.28998 5.60672 9.54998 5.34005ZM8.87998 4.27005C8.87998 4.31672 8.87331 4.38672 8.85998 4.48005C8.80665 4.80005 8.65665 5.05005 8.40998 5.23005C8.16998 5.41005 7.86331 5.50005 7.48998 5.50005H6.07998L6.43998 3.44005H7.84998C8.17665 3.44005 8.42998 3.51338 8.60998 3.66005C8.78998 3.80672 8.87998 4.01005 8.87998 4.27005ZM8.51998 7.28005C8.51998 7.32672 8.51331 7.40338 8.49998 7.51005C8.43998 7.85672 8.28331 8.12672 8.02998 8.32005C7.77665 8.51338 7.45665 8.61005 7.06998 8.61005H5.52998L5.91998 6.39005H7.41998C7.75331 6.39005 8.01998 6.47005 8.21998 6.63005C8.41998 6.79005 8.51998 7.00672 8.51998 7.28005ZM15.5288 4.48005C15.1221 4.09338 14.5755 3.90005 13.8888 3.90005C13.3488 3.90005 12.8488 4.01672 12.3888 4.25005C11.9355 4.48338 11.5555 4.81672 11.2488 5.25005C10.9421 5.67672 10.7388 6.17338 10.6388 6.74005C10.5988 6.96005 10.5788 7.16672 10.5788 7.36005C10.5788 7.81338 10.6755 8.21005 10.8688 8.55005C11.0621 8.88338 11.3321 9.14005 11.6788 9.32005C12.0255 9.50005 12.4288 9.59005 12.8888 9.59005C13.5355 9.59005 14.1055 9.43005 14.5988 9.11005C15.0921 8.78338 15.4655 8.36672 15.7188 7.86005H14.4888C14.1555 8.37338 13.6788 8.63005 13.0588 8.63005C12.6655 8.63005 12.3455 8.51338 12.0988 8.28005C11.8588 8.04672 11.7388 7.73338 11.7388 7.34005C11.7388 7.24672 11.7421 7.17672 11.7488 7.13005H15.9588C16.0255 6.91672 16.0721 6.73672 16.0988 6.59005C16.1321 6.37672 16.1488 6.19338 16.1488 6.04005C16.1488 5.38672 15.9421 4.86672 15.5288 4.48005ZM14.9788 6.05005C14.9788 6.10338 14.9721 6.19005 14.9588 6.31005H11.8988C12.0188 5.86338 12.2421 5.51005 12.5688 5.25005C12.8955 4.99005 13.2621 4.86005 13.6688 4.86005C14.0555 4.86005 14.3688 4.96672 14.6088 5.18005C14.8555 5.39338 14.9788 5.68338 14.9788 6.05005ZM18.3007 7.97005C18.2873 8.06338 18.2807 8.12338 18.2807 8.15005C18.2807 8.29005 18.324 8.39338 18.4107 8.46005C18.4974 8.52005 18.6407 8.55005 18.8407 8.55005H19.5407L19.3707 9.50005H18.4707C18.0307 9.50005 17.694 9.41338 17.4607 9.24005C17.2274 9.06005 17.1107 8.77672 17.1107 8.39005C17.1107 8.24338 17.124 8.10338 17.1507 7.97005L17.6907 4.92005H17.0407L17.2007 3.99005H17.8607L18.1007 2.62005H19.2507L19.0107 3.99005H20.3407L20.1807 4.92005H18.8407L18.3007 7.97005ZM21.1314 5.25005C20.8314 5.67672 20.6314 6.16672 20.5314 6.72005C20.4914 6.92672 20.4714 7.13005 20.4714 7.33005C20.4714 7.77672 20.5614 8.17338 20.7414 8.52005C20.9281 8.86005 21.1814 9.12338 21.5014 9.31005C21.8281 9.49672 22.1981 9.59005 22.6114 9.59005C23.0381 9.59005 23.4314 9.50338 23.7914 9.33005C24.1581 9.15672 24.4614 8.94005 24.7014 8.68005L24.5514 9.50005H25.7014L26.6714 3.99005H25.5214L25.3814 4.79005C25.2347 4.53672 25.0147 4.32672 24.7214 4.16005C24.4281 3.98672 24.0647 3.90005 23.6314 3.90005C23.1514 3.90005 22.6914 4.02005 22.2514 4.26005C21.8114 4.49338 21.4381 4.82338 21.1314 5.25005ZM25.0814 6.33005C25.0814 6.47672 25.0681 6.61338 25.0414 6.74005C24.9747 7.12005 24.8381 7.45338 24.6314 7.74005C24.4247 8.02005 24.1814 8.23338 23.9014 8.38005C23.6214 8.52672 23.3347 8.60005 23.0414 8.60005C22.6481 8.60005 22.3181 8.47005 22.0514 8.21005C21.7914 7.94338 21.6614 7.58338 21.6614 7.13005C21.6614 6.98338 21.6747 6.84672 21.7014 6.72005C21.7681 6.34005 21.9047 6.01338 22.1114 5.74005C22.3181 5.46005 22.5614 5.25005 22.8414 5.11005C23.1214 4.96338 23.4081 4.89005 23.7014 4.89005C24.0947 4.89005 24.4214 5.02005 24.6814 5.28005C24.9481 5.53338 25.0814 5.88338 25.0814 6.33005Z" fill="#FEFEFE"/>
</svg>
