<svg width="190" height="48" viewBox="0 0 190 48" fill="none" xmlns="http://www.w3.org/2000/svg">
<rect width="190" height="2" fill="url(#paint0_linear_1524_8590)"/>
<path d="M20.66 23.96C20.66 22.5733 20.96 21.34 21.56 20.26C22.16 19.1667 22.9933 18.32 24.06 17.72C25.14 17.1067 26.36 16.8 27.72 16.8C29.3867 16.8 30.8133 17.24 32 18.12C33.1867 19 33.98 20.2 34.38 21.72H30.62C30.34 21.1333 29.94 20.6867 29.42 20.38C28.9133 20.0733 28.3333 19.92 27.68 19.92C26.6267 19.92 25.7733 20.2867 25.12 21.02C24.4667 21.7533 24.14 22.7333 24.14 23.96C24.14 25.1867 24.4667 26.1667 25.12 26.9C25.7733 27.6333 26.6267 28 27.68 28C28.3333 28 28.9133 27.8467 29.42 27.54C29.94 27.2333 30.34 26.7867 30.62 26.2H34.38C33.98 27.72 33.1867 28.92 32 29.8C30.8133 30.6667 29.3867 31.1 27.72 31.1C26.36 31.1 25.14 30.8 24.06 30.2C22.9933 29.5867 22.16 28.74 21.56 27.66C20.96 26.58 20.66 25.3467 20.66 23.96ZM43.1144 31.14C41.7944 31.14 40.581 30.8333 39.4744 30.22C38.381 29.6067 37.5077 28.7533 36.8544 27.66C36.2144 26.5533 35.8944 25.3133 35.8944 23.94C35.8944 22.5667 36.2144 21.3333 36.8544 20.24C37.5077 19.1467 38.381 18.2933 39.4744 17.68C40.581 17.0667 41.7944 16.76 43.1144 16.76C44.4344 16.76 45.641 17.0667 46.7344 17.68C47.841 18.2933 48.7077 19.1467 49.3344 20.24C49.9744 21.3333 50.2944 22.5667 50.2944 23.94C50.2944 25.3133 49.9744 26.5533 49.3344 27.66C48.6944 28.7533 47.8277 29.6067 46.7344 30.22C45.641 30.8333 44.4344 31.14 43.1144 31.14ZM43.1144 28.02C44.2344 28.02 45.1277 27.6467 45.7944 26.9C46.4744 26.1533 46.8144 25.1667 46.8144 23.94C46.8144 22.7 46.4744 21.7133 45.7944 20.98C45.1277 20.2333 44.2344 19.86 43.1144 19.86C41.981 19.86 41.0744 20.2267 40.3944 20.96C39.7277 21.6933 39.3944 22.6867 39.3944 23.94C39.3944 25.18 39.7277 26.1733 40.3944 26.92C41.0744 27.6533 41.981 28.02 43.1144 28.02ZM68.097 16.96V31H64.677V22.58L61.537 31H58.777L55.617 22.56V31H52.197V16.96H56.237L60.177 26.68L64.077 16.96H68.097ZM73.9764 16.96V31H70.5564V16.96H73.9764ZM89.0148 31H85.5948L79.8748 22.34V31H76.4548V16.96H79.8748L85.5948 25.66V16.96H89.0148V31ZM100.814 21.4C100.561 20.9333 100.194 20.58 99.7139 20.34C99.2472 20.0867 98.6939 19.96 98.0539 19.96C96.9472 19.96 96.0606 20.3267 95.3939 21.06C94.7272 21.78 94.3939 22.7467 94.3939 23.96C94.3939 25.2533 94.7406 26.2667 95.4339 27C96.1406 27.72 97.1072 28.08 98.3339 28.08C99.1739 28.08 99.8806 27.8667 100.454 27.44C101.041 27.0133 101.467 26.4 101.734 25.6H97.3939V23.08H104.834V26.26C104.581 27.1133 104.147 27.9067 103.534 28.64C102.934 29.3733 102.167 29.9667 101.234 30.42C100.301 30.8733 99.2472 31.1 98.0739 31.1C96.6872 31.1 95.4472 30.8 94.3539 30.2C93.2739 29.5867 92.4272 28.74 91.8139 27.66C91.2139 26.58 90.9139 25.3467 90.9139 23.96C90.9139 22.5733 91.2139 21.34 91.8139 20.26C92.4272 19.1667 93.2739 18.32 94.3539 17.72C95.4339 17.1067 96.6672 16.8 98.0539 16.8C99.7339 16.8 101.147 17.2067 102.294 18.02C103.454 18.8333 104.221 19.96 104.594 21.4H100.814ZM116.047 31.14C115.02 31.14 114.1 30.9733 113.287 30.64C112.473 30.3067 111.82 29.8133 111.327 29.16C110.847 28.5067 110.593 27.72 110.567 26.8H114.207C114.26 27.32 114.44 27.72 114.747 28C115.053 28.2667 115.453 28.4 115.947 28.4C116.453 28.4 116.853 28.2867 117.147 28.06C117.44 27.82 117.587 27.4933 117.587 27.08C117.587 26.7333 117.467 26.4467 117.227 26.22C117 25.9933 116.713 25.8067 116.367 25.66C116.033 25.5133 115.553 25.3467 114.927 25.16C114.02 24.88 113.28 24.6 112.707 24.32C112.133 24.04 111.64 23.6267 111.227 23.08C110.813 22.5333 110.607 21.82 110.607 20.94C110.607 19.6333 111.08 18.6133 112.027 17.88C112.973 17.1333 114.207 16.76 115.727 16.76C117.273 16.76 118.52 17.1333 119.467 17.88C120.413 18.6133 120.92 19.64 120.987 20.96H117.287C117.26 20.5067 117.093 20.1533 116.787 19.9C116.48 19.6333 116.087 19.5 115.607 19.5C115.193 19.5 114.86 19.6133 114.607 19.84C114.353 20.0533 114.227 20.3667 114.227 20.78C114.227 21.2333 114.44 21.5867 114.867 21.84C115.293 22.0933 115.96 22.3667 116.867 22.66C117.773 22.9667 118.507 23.26 119.067 23.54C119.64 23.82 120.133 24.2267 120.547 24.76C120.96 25.2933 121.167 25.98 121.167 26.82C121.167 27.62 120.96 28.3467 120.547 29C120.147 29.6533 119.56 30.1733 118.787 30.56C118.013 30.9467 117.1 31.14 116.047 31.14ZM129.911 31.14C128.591 31.14 127.378 30.8333 126.271 30.22C125.178 29.6067 124.305 28.7533 123.651 27.66C123.011 26.5533 122.691 25.3133 122.691 23.94C122.691 22.5667 123.011 21.3333 123.651 20.24C124.305 19.1467 125.178 18.2933 126.271 17.68C127.378 17.0667 128.591 16.76 129.911 16.76C131.231 16.76 132.438 17.0667 133.531 17.68C134.638 18.2933 135.505 19.1467 136.131 20.24C136.771 21.3333 137.091 22.5667 137.091 23.94C137.091 25.3133 136.771 26.5533 136.131 27.66C135.491 28.7533 134.625 29.6067 133.531 30.22C132.438 30.8333 131.231 31.14 129.911 31.14ZM129.911 28.02C131.031 28.02 131.925 27.6467 132.591 26.9C133.271 26.1533 133.611 25.1667 133.611 23.94C133.611 22.7 133.271 21.7133 132.591 20.98C131.925 20.2333 131.031 19.86 129.911 19.86C128.778 19.86 127.871 20.2267 127.191 20.96C126.525 21.6933 126.191 22.6867 126.191 23.94C126.191 25.18 126.525 26.1733 127.191 26.92C127.871 27.6533 128.778 28.02 129.911 28.02ZM145.634 31.14C144.314 31.14 143.101 30.8333 141.994 30.22C140.901 29.6067 140.027 28.7533 139.374 27.66C138.734 26.5533 138.414 25.3133 138.414 23.94C138.414 22.5667 138.734 21.3333 139.374 20.24C140.027 19.1467 140.901 18.2933 141.994 17.68C143.101 17.0667 144.314 16.76 145.634 16.76C146.954 16.76 148.161 17.0667 149.254 17.68C150.361 18.2933 151.227 19.1467 151.854 20.24C152.494 21.3333 152.814 22.5667 152.814 23.94C152.814 25.3133 152.494 26.5533 151.854 27.66C151.214 28.7533 150.347 29.6067 149.254 30.22C148.161 30.8333 146.954 31.14 145.634 31.14ZM145.634 28.02C146.754 28.02 147.647 27.6467 148.314 26.9C148.994 26.1533 149.334 25.1667 149.334 23.94C149.334 22.7 148.994 21.7133 148.314 20.98C147.647 20.2333 146.754 19.86 145.634 19.86C144.501 19.86 143.594 20.2267 142.914 20.96C142.247 21.6933 141.914 22.6867 141.914 23.94C141.914 25.18 142.247 26.1733 142.914 26.92C143.594 27.6533 144.501 28.02 145.634 28.02ZM167.277 31H163.857L158.137 22.34V31H154.717V16.96H158.137L163.857 25.66V16.96H167.277V31Z" fill="url(#paint1_linear_1524_8590)"/>
<rect y="46" width="190" height="2" fill="url(#paint2_linear_1524_8590)"/>
<defs>
<linearGradient id="paint0_linear_1524_8590" x1="1.32303e-06" y1="1.03448" x2="190" y2="1.03442" gradientUnits="userSpaceOnUse">
<stop stop-color="#EBB9E7" stop-opacity="0"/>
<stop offset="0.526042" stop-color="#9EE6FC"/>
<stop offset="1" stop-color="#EBB9E7" stop-opacity="0"/>
</linearGradient>
<linearGradient id="paint1_linear_1524_8590" x1="20" y1="24.3448" x2="169" y2="24.3448" gradientUnits="userSpaceOnUse">
<stop stop-color="#9EE6FC"/>
<stop offset="1" stop-color="#EBB9E7"/>
</linearGradient>
<linearGradient id="paint2_linear_1524_8590" x1="1.32303e-06" y1="47.0345" x2="190" y2="47.0344" gradientUnits="userSpaceOnUse">
<stop stop-color="#EBB9E7" stop-opacity="0"/>
<stop offset="0.526042" stop-color="#9EE6FC"/>
<stop offset="1" stop-color="#EBB9E7" stop-opacity="0"/>
</linearGradient>
</defs>
</svg>
