<svg width="72" height="72" viewBox="0 0 72 72" fill="none" xmlns="http://www.w3.org/2000/svg">
<path fill-rule="evenodd" clip-rule="evenodd" d="M36.0003 12.5C29.6491 12.5 24.5003 17.6487 24.5003 24V25.5243C24.5003 28.1021 25.5244 30.5743 27.3471 32.397L29.1193 34.1692C31.2841 36.334 32.5003 39.2702 32.5003 42.3318C32.5003 48.9845 28.5987 55.0188 22.5319 57.7488L14.3056 61.4507C12.1344 62.4277 10.1588 63.7913 8.47522 65.4749L6.00035 67.9497L1.0506 63L3.52547 60.5251C5.80886 58.2417 8.48825 56.3924 11.433 55.0672L12.8693 58.259L11.433 55.0672L19.6593 51.3654C23.2142 49.7657 25.5003 46.23 25.5003 42.3318C25.5003 41.1267 25.0216 39.971 24.1695 39.1189L22.3974 37.3468C19.2619 34.2113 17.5003 29.9586 17.5003 25.5243V24C17.5003 13.7827 25.7831 5.5 36.0003 5.5C46.2176 5.5 54.5003 13.7827 54.5003 24V25.5243C54.5003 29.9586 52.7388 34.2113 49.6033 37.3468L47.8312 39.1189C46.9791 39.971 46.5003 41.1267 46.5003 42.3318C46.5003 46.23 48.7865 49.7657 52.3413 51.3654L60.5677 55.0672C63.5124 56.3924 66.1918 58.2417 68.4752 60.5251L70.9501 63L66.0003 67.9497L63.5255 65.4749C61.8419 63.7913 59.8663 62.4277 57.6951 61.4507L49.4688 57.7488C43.402 55.0188 39.5003 48.9845 39.5003 42.3318C39.5003 39.2702 40.7165 36.3341 42.8814 34.1692L44.6536 32.397C46.4763 30.5743 47.5003 28.1021 47.5003 25.5243V24C47.5003 17.6487 42.3516 12.5 36.0003 12.5Z" fill="#FEFEFE" fill-opacity="0.4"/>
</svg>
